<svg id="Layer_1" data-name="Layer 1" xmlns="http://www.w3.org/2000/svg" viewBox="0 0 265.91 300"><defs><style>.cls-1{fill:#ededed;}.cls-2,.cls-4{fill:none;}.cls-2{stroke:#000;stroke-miterlimit:10;}.cls-3{fill:#fff;}</style></defs><path class="cls-1" d="M45.79,223.07l30.49,18.72,55.63,12.84s27.27-.53,43.33-8.56,46-25.67,46-25.67l14.44,15.51,8.55,19.26S205.72,298,130.3,297.43c0,0-69,0-108-42.26Z"/><path class="cls-1" d="M132.81,252A124.94,124.94,0,0,1,44.47,38.75,124.93,124.93,0,1,1,221.15,215.42,124.11,124.11,0,0,1,132.81,252Z"/><path d="M105.14,220.58H108l4.08,3.36v5.27h7.05v-6.27h-3.5l-1.76-1.43v-.93h9.84v2.36H122v16.31h-1.08l-1.74-1.42v-6.75H112.1v2.42h-2.3l-2.9-2.42v-1.87h2.33v-4.83l-1.76-1.44h-2.33Z"/><path d="M123.73,220.58h7.73v2.36h-2.14v16.31h-1.09l-1.73-1.42V222.94h-2.77Z"/><path d="M131.56,220.58h12.77v2.36h-3.5l0,4.94-.08.71-.21.64-.47.51-.56.43-.76.25-.84.15-.57,0-.54.07-.52.47-.08.52.05.6.57,1.08.82,1,.94,1,1.18,1.09,1.22.95.91.81,1.37,1-1.09-.06-2.12-1.27-1.47-1.05-1.53-1.14-1.25-1.06-1.33-1.24-.84-1.08-.54-1.19-.22-1,.08-.88.22-.74.54-.41.86-.42,1-.16h.93l.65.24.38.34.4-.19,0-.39v-4.56h-6.42Z"/><path d="M144.57,220.58l17.78-.05v2.41h-2.09v16.31h-1.09l-1.75-1.42v-8.17h-7.84l-.75.2-.47.45-.23.62.13.78.24.75.38.79.54.87.63.75.64.78.85.83.83.78.95.69,1.09.82-.84,0-.82-.36-.69-.48-.61-.39-.76-.62-.7-.53-.7-.63-.68-.61-.63-.67-.64-.8-.53-.7-.46-.77-.36-.76-.2-.79v-.82l.09-.71.37-.62.49-.52.8-.42.72-.21,1.16-.09h8v-4.35H144.57Z"/><path class="cls-2" d="M49.7,228.85c-.19-.17-.39-.33-.58-.48"/><path d="M247.77,241.86a163.56,163.56,0,0,0,18.14-21.55l-31.05-17.22a127.09,127.09,0,1,0-203,.93L0,220.23a164.8,164.8,0,0,0,18.21,21.63q3.13,3.12,6.39,6.07l-7.26,7.71a172.93,172.93,0,0,0,231.56-.24l-6.33-8.56C244.33,245.23,246.06,243.56,247.77,241.86ZM10,127.09A123,123,0,0,1,219.93,40.14,123,123,0,0,1,46,214,122.18,122.18,0,0,1,10,127.09Zm123,167.4A166.09,166.09,0,0,1,27,256.64L49.7,228.85A131.55,131.55,0,0,0,217.34,228L241,255A166.11,166.11,0,0,1,133,294.49Z"/><path d="M133,209a81.87,81.87,0,1,1,57.9-24A81.37,81.37,0,0,1,133,209Z"/><path class="cls-3" d="M152.21,137.6A53.87,53.87,0,0,1,173.52,142l24.5-8.33L177.28,130a1.51,1.51,0,0,1-1.24-1.24,1.53,1.53,0,0,1,.76-1.59L191.33,119H176.6a1.52,1.52,0,0,1-.79-2.82l15.05-9.07-22.36,1.73A1.55,1.55,0,0,1,167,108a1.51,1.51,0,0,1,.1-1.63l9.46-13.13-14.39,8.83a1.52,1.52,0,0,1-2.19-1.91l8.8-20.11-17.44,16a1.54,1.54,0,0,1-1.65.27,1.55,1.55,0,0,1-.91-1.4V78.17L140.26,92a1.53,1.53,0,0,1-2.81-.61l-3-23.08-5.07,22.58A1.54,1.54,0,0,1,128.09,92a1.51,1.51,0,0,1-1.54-.81L119.3,77.42V94a1.53,1.53,0,0,1-1.07,1.46,1.55,1.55,0,0,1-1.72-.6l-13-19.08,5.65,23.56a1.53,1.53,0,0,1-2.46,1.53L94.51,90.81l6,16.91a1.53,1.53,0,0,1-2.08,1.9l-15-7,10.42,10.22a1.53,1.53,0,0,1,.34,1.66,1.51,1.51,0,0,1-1.41,1H77.15l11.13,7.66a1.49,1.49,0,0,1,.6,1.65,1.51,1.51,0,0,1-1.36,1.12l-17.85,1.23,24.52,13.31c3.56-1.2,20.32-6.14,35.81.26h5.12a48,48,0,0,1,17.09-3.08Zm21.23,7.58a1.49,1.49,0,0,1-.69-.16c-.17-.09-17.89-8.7-36.8-1.39a1.45,1.45,0,0,1-.55.1h-5.7a1.45,1.45,0,0,1-.59-.12c-16-6.78-34.34-.18-34.52-.11a1.54,1.54,0,0,1-1.26-.09L63.6,127.29a1.53,1.53,0,0,1,.62-2.87l18.72-1.28-11.57-8a1.52,1.52,0,0,1,.86-2.77H89.06L75,98.57a1.53,1.53,0,0,1,1.72-2.47l19.77,9.21-6.67-18.7a1.5,1.5,0,0,1,.56-1.76,1.52,1.52,0,0,1,1.84.07l12.93,10.69L98.58,68.43a1.53,1.53,0,0,1,.87-1.75,1.51,1.51,0,0,1,1.87.53l14.93,21.86V71.23a1.52,1.52,0,0,1,2.87-.71l8.19,15.62,6.06-26.94a1.52,1.52,0,0,1,3,.14l3.56,27.38L149.05,72a1.52,1.52,0,0,1,2.82.8V91.49L172.09,73a1.52,1.52,0,0,1,2.42,1.73L164.77,97l16.72-10.27a1.52,1.52,0,0,1,1.91.27,1.5,1.5,0,0,1,.12,1.92l-12,16.64,25.5-2a1.53,1.53,0,0,1,.91,2.83l-15.86,9.55h15.07a1.52,1.52,0,0,1,.75,2.85L182,127.72l22.38,4a1.52,1.52,0,0,1,.22,2.94L173.92,145.1a1.56,1.56,0,0,1-.48.08Z"/><path class="cls-3" d="M131.26,194.94l-2.18-1c-13.78-6.59-34.83-3-35-3l-1.79.3V142.07h3v45.58a92.89,92.89,0,0,1,11-.78c8.66-.1,16,1,21.86,3.33v-48h3v52.74Z"/><path class="cls-3" d="M133.88,195V142.2h3.05v48c4.43-1.63,15.49-4.58,34.27-2.67v-43.9h3.05V191l-1.7-.19c-13-1.49-22.17-.56-27.63.48a34.29,34.29,0,0,0-8.8,2.62L133.88,195Z"/><path class="cls-3" d="M148.5,126.29c-.27,1.41-3,2.08-6.06,1.51s-5.36-2.19-5.09-3.6,3-2.08,6.05-1.51,5.36,2.19,5.1,3.6Zm-16-.83c-2,0-3.56-4.32-3.56-9.64s1.59-9.65,3.56-9.65,3.55,4.32,3.55,9.65-1.59,9.64-3.55,9.64Zm-10.73,2.35c-3.09.46-5.77-.32-6-1.74s2.13-2.94,5.23-3.39,5.78.32,6,1.74-2.13,2.93-5.24,3.39Zm27-4.25a11.7,11.7,0,0,0-11.24-1.78,32.6,32.6,0,0,0,.68-6c0-6.72-2.55-12.18-5.71-12.18s-5.72,5.46-5.72,12.18a22.93,22.93,0,0,0,.91,6.6c-2.9-2.19-9.23-2.09-12.36,1.26a5.07,5.07,0,0,0-1.3,3.57c.07,4.26,1.87,15.14,18.42,14.95,15.24-.16,18-9.22,18.38-13.91a5.41,5.41,0,0,0-2.06-4.73Z"/><polygon class="cls-3" points="103.1 147.7 100.56 147.7 100.56 144.65 103.1 144.65 103.1 147.7 103.1 147.7"/><path class="cls-3" d="M110.41,147.7h-4.87v-3h4.87v3Zm7.3,0h-4.87v-3h4.87v3Z"/><polygon class="cls-3" points="122.69 147.7 120.14 147.7 120.14 144.65 122.69 144.65 122.69 147.7 122.69 147.7"/><polygon class="cls-3" points="103.1 152.78 100.56 152.78 100.56 149.74 103.1 149.74 103.1 152.78 103.1 152.78"/><path class="cls-3" d="M110.41,152.78h-4.87v-3h4.87v3Zm7.3,0h-4.87v-3h4.87v3Z"/><polygon class="cls-3" points="122.69 152.78 120.14 152.78 120.14 149.74 122.69 149.74 122.69 152.78 122.69 152.78"/><polygon class="cls-3" points="103.1 157.87 100.56 157.87 100.56 154.81 103.1 154.81 103.1 157.87 103.1 157.87"/><path class="cls-3" d="M110.41,157.87h-4.87v-3.06h4.87v3.06Zm7.3,0h-4.87v-3.06h4.87v3.06Z"/><polygon class="cls-3" points="122.69 157.87 120.14 157.87 120.14 154.81 122.69 154.81 122.69 157.87 122.69 157.87"/><polygon class="cls-3" points="103.1 162.95 100.56 162.95 100.56 159.9 103.1 159.9 103.1 162.95 103.1 162.95"/><path class="cls-3" d="M110.41,163h-4.87v-3h4.87v3Zm7.3,0h-4.87v-3h4.87v3Z"/><polygon class="cls-3" points="122.69 162.95 120.14 162.95 120.14 159.9 122.69 159.9 122.69 162.95 122.69 162.95"/><polygon class="cls-3" points="103.1 168.03 100.56 168.03 100.56 164.98 103.1 164.98 103.1 168.03 103.1 168.03"/><path class="cls-3" d="M110.41,168h-4.87V165h4.87V168Zm7.3,0h-4.87V165h4.87V168Z"/><polygon class="cls-3" points="122.69 168.03 120.14 168.03 120.14 164.98 122.69 164.98 122.69 168.03 122.69 168.03"/><polygon class="cls-3" points="103.1 173.1 100.56 173.1 100.56 170.06 103.1 170.06 103.1 173.1 103.1 173.1"/><path class="cls-3" d="M110.41,173.11h-4.87v-3.05h4.87v3.05Zm7.3,0h-4.87v-3.05h4.87v3.05Z"/><polygon class="cls-3" points="122.69 173.1 120.14 173.1 120.14 170.06 122.69 170.06 122.69 173.1 122.69 173.1"/><polygon class="cls-3" points="103.1 178.19 100.56 178.19 100.56 175.14 103.1 175.14 103.1 178.19 103.1 178.19"/><path class="cls-3" d="M110.41,178.19h-4.87v-3.05h4.87v3.05Zm7.3,0h-4.87v-3.05h4.87v3.05Z"/><polygon class="cls-3" points="122.69 178.19 120.14 178.19 120.14 175.14 122.69 175.14 122.69 178.19 122.69 178.19"/><polygon class="cls-3" points="103.1 183.27 100.56 183.27 100.56 180.22 103.1 180.22 103.1 183.27 103.1 183.27"/><path class="cls-3" d="M110.41,183.27h-4.87v-3.05h4.87v3.05Zm7.3,0h-4.87v-3.05h4.87v3.05Z"/><polygon class="cls-3" points="122.69 183.27 120.14 183.27 120.14 180.22 122.69 180.22 122.69 183.27 122.69 183.27"/><polygon class="cls-3" points="145.54 147.7 143 147.7 143 144.65 145.54 144.65 145.54 147.7 145.54 147.7"/><path class="cls-3" d="M152.84,147.7H148v-3h4.86v3Zm7.31,0h-4.88v-3h4.88v3Z"/><polygon class="cls-3" points="165.12 147.7 162.59 147.7 162.59 144.65 165.12 144.65 165.12 147.7 165.12 147.7"/><polygon class="cls-3" points="145.54 152.78 143 152.78 143 149.74 145.54 149.74 145.54 152.78 145.54 152.78"/><path class="cls-3" d="M152.84,152.78H148v-3h4.86v3Zm7.31,0h-4.88v-3h4.88v3Z"/><polygon class="cls-3" points="165.12 152.78 162.59 152.78 162.59 149.74 165.12 149.74 165.12 152.78 165.12 152.78"/><polygon class="cls-3" points="145.54 157.87 143 157.87 143 154.81 145.54 154.81 145.54 157.87 145.54 157.87"/><path class="cls-3" d="M152.84,157.87H148v-3.06h4.86v3.06Zm7.31,0h-4.88v-3.06h4.88v3.06Z"/><polygon class="cls-3" points="165.12 157.87 162.59 157.87 162.59 154.81 165.12 154.81 165.12 157.87 165.12 157.87"/><polygon class="cls-3" points="145.54 162.95 143 162.95 143 159.9 145.54 159.9 145.54 162.95 145.54 162.95"/><path class="cls-3" d="M152.84,163H148v-3h4.86v3Zm7.31,0h-4.88v-3h4.88v3Z"/><polygon class="cls-3" points="165.12 162.95 162.59 162.95 162.59 159.9 165.12 159.9 165.12 162.95 165.12 162.95"/><polygon class="cls-3" points="145.54 168.03 143 168.03 143 164.98 145.54 164.98 145.54 168.03 145.54 168.03"/><path class="cls-3" d="M152.84,168H148V165h4.86V168Zm7.31,0h-4.88V165h4.88V168Z"/><polygon class="cls-3" points="165.12 168.03 162.59 168.03 162.59 164.98 165.12 164.98 165.12 168.03 165.12 168.03"/><polygon class="cls-3" points="145.54 173.1 143 173.1 143 170.06 145.54 170.06 145.54 173.1 145.54 173.1"/><path class="cls-3" d="M152.84,173.11H148v-3.05h4.86v3.05Zm7.31,0h-4.88v-3.05h4.88v3.05Z"/><polygon class="cls-3" points="165.12 173.1 162.59 173.1 162.59 170.06 165.12 170.06 165.12 173.1 165.12 173.1"/><polygon class="cls-3" points="145.54 178.19 143 178.19 143 175.14 145.54 175.14 145.54 178.19 145.54 178.19"/><path class="cls-3" d="M152.84,178.19H148v-3.05h4.86v3.05Zm7.31,0h-4.88v-3.05h4.88v3.05Z"/><polygon class="cls-3" points="165.12 178.19 162.59 178.19 162.59 175.14 165.12 175.14 165.12 178.19 165.12 178.19"/><polygon class="cls-3" points="145.54 183.27 143 183.27 143 180.22 145.54 180.22 145.54 183.27 145.54 183.27"/><path class="cls-3" d="M152.84,183.27H148v-3.05h4.86v3.05Zm7.31,0h-4.88v-3.05h4.88v3.05Z"/><polygon class="cls-3" points="165.12 183.27 162.59 183.27 162.59 180.22 165.12 180.22 165.12 183.27 165.12 183.27"/><path d="M46.69,95.42l1.71,2.4,1.33,1.64.58-.24.46-.55L51,98l1,1.75-.22.55-.55.63-.59.26-.39,0-.84-.19-.68-.5-1.39-2.1L45.78,96Z"/><path d="M33.28,111.83l1.13-7.91,2.58.36-.81,5.63v.53l.28.31.47-.13.44-.26h.82l.88.23.41.46-.07.94-.54,1-.89.69-.86.62-.67.27-.93,0-.89-.12-.69-.32-.52-.67-.17-.83Z"/><path d="M49.13,58.71l-.16-.1c.87-1.09,1.76-2.17,2.69-3.24L50,53.61A107.12,107.12,0,0,0,34.85,76.38L33,75.68a7.67,7.67,0,0,0-1.4-.49,15.41,15.41,0,0,0-1.62-.35,8.39,8.39,0,0,0-3.2.07A5.08,5.08,0,0,0,24,76.53a2.74,2.74,0,0,0-.28.38c-.06.09-.16.28-.3.56A4.5,4.5,0,0,0,23,79a5.24,5.24,0,0,0,.12,1.71,5.11,5.11,0,0,0,.64,1.55,4.44,4.44,0,0,0,1.08,1.21,12.49,12.49,0,0,0,1.65.89l.74.33.69.23c.46.15.7.19.73.14l0,0,1.23-2.39-1.27-.54L28,81.92l-.62-.25a5.49,5.49,0,0,1-.63-.34,6.27,6.27,0,0,1-.53-.34,3.09,3.09,0,0,1-1.07-1.57,2.24,2.24,0,0,1,.07-1.66,2.28,2.28,0,0,1,.38-.55,4.27,4.27,0,0,1,3.38-1A23.63,23.63,0,0,1,34.11,78,104.82,104.82,0,0,0,24,123c0,1.63,0,3.24.11,4.84l-1.38.18-1,.35-.92.29-1,.29-.75.38-.69.38-.84.42-.62.41-.49.52-.4.5-.51.66-.29.73-.18.69L14.69,139l2.39-1.9.21-3.32.32-1.12L18,132l.59-.65.79-.56.86-.45.87-.31.7-.22.89-.25,1.46-.11a104.13,104.13,0,0,0,1.47,12.32l2.44,0a99.5,99.5,0,0,1-1.35-10.38l7.83-.46-2,1.93-.89,1.06L31.19,135l-.06,1,.06,1.08.61,1.31.51.81.74.59.78.45.86.33,1.19,0,1-.11.75-.29.8-.48.91-.84.54-.82.45-.84.32-.8.12-.89-.08-1.35-.39-1.57-.92-1.13-.84-.86,6.21-.37,1.55-1.72-.06-1-9.49.57-.75-.81-.76-.94-.43-.66-.41-.56-.32-.69-.06-1,.15-.72.42-.6.56-.47.83-.13.88.08.67.39.92.55.4.41.48.55.33.56.28.49,0,.56,2.6-2-.84-.87-1-1-.89-.68-1-.34-1-.2-.67-.08-1,.13-1,.34-.87.48-.66.41-.54.48-.64.61L32,123l-.3.53-.12.77,0,.69.11.54.29.79.46.69.57.74.42.64-6.9.63q-.16-3-.17-6a103,103,0,0,1,5.88-34.44l3.09,1.06-.45.68-.34.74-.34.63-.43,1.09-.4.86-.2,1.23,0,1.32.36,1.25.34.85.68.88.92.92,1,.62,1,.38,1,.24,1.08,0,.92,0,1.1-.27,1.25-.48,1.19-.72,1-.75.75-.65.74-1,.67-1,.36-1.11.13-.83,0-.93-.24-.93-.25-.59L50,90.78l2-.81.39.5.13.7-.13.67,1.74-1,.08-.58L54,89.39l-.38-.5-.34-.2-.83-.24-.84.11-2.25,1.17-2.58,1.43-.61-.9-.69-.8-1.19-.68-1.17-.06-.7.22-.62.48-.59,1-.07.82,0,.59.21.62.6.49,1,.32h.75l.91-.11.55.65.14.84-.18,1.24L44.73,97l-.72,1-.87.57-1.08.42-1.44.13-1.43-.27-1.43-.63-.84-.76-.66-.93L36,95.59l0-.8-.11-.7L36.08,93l.36-1.1.62-1.13.71-.92.57-1.13.14-.79-.95-.63-4.25-1.43q1.38-3.55,3-7l.67.31,15.63,7.4,2.2-.75.45-.92L38.11,76.8l-.68-.26q2.2-4.35,4.82-8.5a4.55,4.55,0,0,1,1.08-.52l.28-.23.57-.18.77-.17.81,0,.79.27.73.71.37.7.06.7.06.68-.12.71-.19.54-.4.61-.42.5-.75.32-.4.56,1,.56,1.08.15,1.18.1,1.27,0,1.38,0,1.44-.28L54,73.53l1-.44.8-.41.59-.75L57,70.69l.1-1L57,68.37l-.23-1.53,5.32,3.45,2.29-.45L65,69ZM35.42,131l.62.38.79.74.61.6.59.73.54.68.43.7.15,1.07-.3,1.09-.56.68-.72.41-.63.18-.68.13-.76-.13-.58-.21-.7-.43-.43-.53-.41-.73-.45-1,.13-.9.36-.94.41-.7.71-.88Zm19.17-62L54.26,70l-.77,1.15-.78.71-.88.39-1.28.23-1.1.22H48l1-.84.55-.82.27-1.19.13-1L49.75,68,49.41,67l-.59-.65-.47-.45-.81-.38-.79-.11-.76.06-.66.18-.48.15-1.57.6q1.9-2.89,4-5.69l.79.54,5.84,3.79.28.5.24.94.16,1.21Z"/><path d="M232.88,82.31a105.22,105.22,0,0,0-10-18.45L221,65.26c.75,1.1,1.47,2.23,2.18,3.36l-4.89,3.32-3.82-5.51-.09-.38,1.23.22,1.1.15h.92l.71,0,.64-.25.43-.28.49-.48.36-.51.4-.62.27-.79,0-.72,0-.73-.32-1.13-.41-.77-1.05-.94-.68-.43-.81-.16-1,.1-1,.39-.9.6-.73.76-.42.87-.22.85-.08.66-.06.94-.75-.17-.93-.21L210.52,63l-.86-.1-1.06-.09-.85,0-1.22.46-.92.61-.48.57-.49.61-.34.65-.21.6-.18.7-.07.75v.65l.18.83.19.73.57.84.57.66.54.43.59.31.65.08-1.31,5,.75,1.07L208,72.73l.65.07.86,0,.71-.21.6-.31.58-.57.21-.66.06-.66-.35-.92-.54-.5-.61-.26-.8-.11-.57.21-.5.33-.34.41-.21.51-.14.58-.57-.19-.44-.51-.34-.47-.4-.76,0-.44.1-.65.21-.6.38-.59.45-.5.68-.45.83-.22.93-.1.73.06.84.11.72.13,1,.19.66.17.09.81.13.88.18,1,.15.94,2.53,3.69-7.82,5.26-.26,2.4.45.65,15.83-10.43c1.17,2,2.27,4,3.3,6.11l-16,7.57-.79,2.17.45.91,17.48-8.21c.58,1.24,1.14,2.5,1.66,3.76ZM215.05,62.58l.32-.7.52-.64.76-.51.86-.23.71,0,.69.34.47.41.43.59.22.45.14.61,0,.6-.29.49-.45.55-.66.2-.68.08h-.88l-.85-.23-.8-.26-.63-.22,0-.74Z"/><path d="M216.66,55.55a108.85,108.85,0,0,0-26.15-22.83l2.43-2.95,1.17-1.21,1.51-.67,1.4-.17,1.54.49L200,29.36l1,1.42.71,1.64.47,2,.36,1.76.24,2.09.1,1.32.74.49V38.86l0-1.23L203.6,36l-.17-1.74-.26-1.67L202.78,31l-.54-1.61-.93-1.35-1.45-1.32L198.43,26l-1.22-.36-1.42-.19-1.07.17-1.43.44-1.36.86-1,1.26-2.58,3.24c-1.89-1.12-3.81-2.19-5.77-3.19l-1.14,2.06c2,1,3.9,2.08,5.79,3.2L177.81,46.8l.4,2.26.85.58,10.42-14.78a110.06,110.06,0,0,1,9.7,6.89l-1,1.08L197,42.42l-.68-.24-1-.4-1.11-.43-.11,2.88.95-.07h.77l.78.13.84.32.6.18.67.41.61.58.5.76.15.88,0,.79-.21.54-.5.74-.68.71-.91.55-1.7.49-1.57-.12-1.05-.28-1.44-.53-.56-.33.5-.63.37-.6,0-.72-.23-.61-.44-.51-.83-.45-.83.1-.69.31-.61.63-.39.62-.11.71,0,.7.28.86.21.69.46.74.19.84.19,1.09L190,60l1.71,1.66L191,59.33l-.34-3.23-.13-2.3,0-1.16.76.37,1.69.46,1.8.27,1.56-.13,1.12-.4,1-.62.62-.63.72-.87.62-1,.32-.79.29-.81.11-.74,0-.69-.05-.65-.18-.66-.57-.81-.43-.39,1-1.33c2.27,1.89,4.46,3.86,6.58,6l.42.43-12,12.81.08,2.31.74.7L210,51.64c1.7,1.79,3.34,3.62,4.9,5.5Z"/><path d="M250.45,105.68l-2.72,1.75.06,2.6-.28,1.65-.46,1.17-1,1.23-1.11,1-1.33.53-1.11.29-1.69.17a105.1,105.1,0,0,0-4.48-24.24l-2.36.44a104.28,104.28,0,0,1,3.38,14.48L231,107.76l.88-1.06.63-1,.51-.94.33-1.16.11-.62.06-.86-.29-1.06-.24-1-.35-.87L232,98.3l-.75-.93-.84-.68-.94-.57-1.24-.22h-1l-1.08.26-1.15.67-1.08,1L223,99.12l-.43,1.07-.33,1.22v1l.08,1.38.57,1.64.69,1.07.52.56.84.84,1.06.66-5.86.91-1.37,1.88.15,1,18.78-3c.29,2.14.5,4.3.65,6.48l-17,.28-1.92,1.58,0,1.07,19.09-.3c.07,1.52.1,3,.1,4.53a105.13,105.13,0,0,1-.87,13.45l-.55,0-1.85-.16.75-7.32,0-1.15-.41-.88-.91-.6-1.31-.18-1.33.12-1,.42-1,.57-1,.89-.79.72-.47.77-.41,1-.11,1.57.5,1.06.51.94.38.66.32.93-.26.87-.58.57-1,.19-1.28-.19-1.06-.37-.9-.65-.92-.86-.62-1.08-.35-1.29.28-1.86.61-1.22,1.67-1.86,1.72-1.38,2.79-2-.83-.08-1.14.53-1.66,1-1.28.87-1.45,1-1.19,1L220.52,130l-1,1.68-.17,1.78.25,1.25.3.84.7,1.2.81.94,1,.78,1,.45,1.34.27,1.37.05,1.44-.37,1.21-.5.85-.6.82-1.11.47-1L231,134v-1.09l-.36-1.49-.42-.81-.39-.91.46-.84.91-.22,2.63.27-.91,9.72,3.82.35.61.08q-.24,1.62-.54,3.24l2.43.07c.11-.61.22-1.22.32-1.84l.35-.25.93-.44.75-.42,1-.26.8-.18h1.06l1,.26.78.38.64.48.39.46.24.69-.08.74-.38.79-.46.43-1,.57-.85.43-.09.47,1.52-.15,1-.32,1-.63.78-.89.22-1.11-.17-1.06-.34-.89-.55-.74-.59-.48-.82-.52-1.22-.38-1.23-.08-1.49.16-1.64.69-1.36.83A105,105,0,0,0,241,123c0-1.73,0-3.46-.13-5.18l1.47-.25,1.19-.24,1-.31,1.11-.4,1-.5.78-.62.9-.73.78-1,.46-.63.32-.59.45-1,.17-1.54Zm-25.34-.92-.38-.53-.34-.88-.18-1.52.13-1.09.45-1.09.61-.74.76-.58,1.28-.27,1.07.1.78.34.53.8Zm4.61,2.86-1.11.18-1.24-.76-1-.83,4.44-5.16.42,1.32.18,1.59,0,1.47-.87,1.48Z"/><path d="M174.38,27l.92-2.17a109.8,109.8,0,0,0-42.78-8.61q-3.22,0-6.39.18L126,14l.14-1.67.75-1.45,1-1,1.5-.57h1.88l1.69.5,1.59.83,1.65,1.28,1.4,1.16,1.52,1.48.91,1,.9-.06-.79-1-.77-1-1.11-1.27L137,11l-1.26-1.14-1.26-.94L133,8l-1.58-.48-2-.13-1.6.27-1.18.47-1.23.73-.72.79-.85,1.23-.5,1.5V14l.23,2.56A109,109,0,0,0,59.53,44l1.61,1.83c.82-.73,1.65-1.44,2.49-2.15l4.78,6.15-1.77,1.34,1,1.32,4.7.62,1.28-1L71.92,49.9l5.31-4L82,52l2.32.31.81-.62L73.25,36.38q2.72-1.82,5.52-3.46l9.32,15.33,2.25.62.9-.5L81.09,31.61q3.6-2,7.37-3.67L87.84,29l-.47.93-.19.7.13,1,.53.64.91.47.94.18.8.06,1.12-.15.87-.27L92,33.6l-.32.76-.2.86.12,1,.52.9.56.75.77.54.61.38.89.43,1,.36.88.2,1.18.1,1.15-.1,1.19-.28,1-.41.8-.52.79-.66.75-.88.58-1.1-1.65-4v.94l-.2.93-.33.81-.49,1-.4.64-.54.58-.63.56-.67.44-.73.29-.89.28-.91-.11-.64-.19-.73-.29-.68-.52-.42-.55L94,35.8l-.07-1,.31-.89.55-.88.65-.66.68-.66,1-.64.81-.33-3.09-1.44-.37.53-.29.42-.43.51-.62.38-.87.44-1,.11-.79-.19-.64-.37-.23-.59v-.87l.28-.74.24-.68.48-.66.58-.85a104.69,104.69,0,0,1,14.7-4.89,17,17,0,0,1,2.07.43h.13l.52.26.66.42.59.55.36.75v1L110,26l-.46.54-.44.52-.59.42-.53.25-.73.15-.65.06-.76-.3-.69.11.35,1.13.65.86.75.89.87.92,1,.95,1.22.8,1,.62,1,.37.86.27.94-.11,1.33-.46.78-.63.92-1,.94-1.22L119,37.33l1.94,1.28,1-.2-3.65-17.62L118,19.53c1.9-.25,3.8-.44,5.72-.6L125,36.62l1.75,1.51,1-.07-1.34-19.31q3-.16,6.05-.17l1.41,0-.53,7.72-2.22-.14-.11,1.66,3.12,3.5,1.61.1.18-2.76,6.67.42-.49,7.71,1.53,1.73,1,.07L146,19.41a107.79,107.79,0,0,1,16.34,3.33L160,30.13l-1.16-2.47-.72-1.2-.89-.87-.94-.4-1.06-.31L153.8,25l-1,.21-.8.48-.71.57-.61.67L150.27,28,150,29l0,.79.18.89.51,1.14.58.78.66.7.65.56.82.42,1.31.39,1.63.17,1.39-.46,1.12-.49-1.77,5.88,1.11,2,1,.29,2.7-9,1-.42,1.16-.37.77-.18.67-.18.78-.06,1,.28.62.39.45.59.25.68-.16.81-.37.79-.61.49-.84.66-.53.22-.68.26-.66.12-.56.08-.54-.15,1.07,3.1,1.11-.48,1.33-.57,1-.6.66-.79.53-.84.31-.59.22-1v-1l-.15-1-.18-.76-.26-.65-.38-.81-.4-.68-.41-.45-.68-.37-.68-.19-.56-.09h-.85l-.82.19-.9.28-.75.16,2-6.49Q169.71,25,174.38,27Zm-15.26,4.35-1,.48-.77.36-.9.3-.83.27-.82.16-1.08-.24-.93-.65-.46-.74-.15-.81.06-.64.09-.68.39-.65.41-.48.63-.49.66-.22.83-.13,1.08-.09.81.43.77.65.54.63.59.95.64,1.15ZM75.79,44.21l-5.28,4-5-6.18q2.59-2.09,5.29-4Zm39.66-23.54,1.5,7.25-.16.56-.51.83-.75,1-.88.83-1,.53-1.36.28-1.06,0-.91-.34-1.07-.73-.94-.62-1-1,1.32.1,1-.19,1-.66.8-.59.52-.77.42-.88.05-.88v-.65l-.3-.83-.48-.63L111,22.7l-.59-.32-.45-.25-.25-.17L108,21.34c2.38-.55,4.8-1,7.24-1.4Zm27.26,6.23-6.66-.41.63-7.82c2.23.08,4.45.22,6.66.44Z"/><path d="M41,152.42a3.21,3.21,0,1,1-3.21-3.21A3.21,3.21,0,0,1,41,152.42Z"/><path d="M234.62,152.42a3.22,3.22,0,1,1-3.21-3.21A3.21,3.21,0,0,1,234.62,152.42Z"/><path d="M172.49,282.29l4.24,3.43h0a.5.5,0,0,1,.07.41.51.51,0,0,1-.25.34l-.05,0a.18.18,0,0,1-.09,0,.48.48,0,0,1-.37,0l-4.45-2-2.32-1.16Z"/><path d="M55.94,257.29h0v0h0a3.39,3.39,0,0,0,.63-3.06,6.35,6.35,0,0,0-.41-1l-.3-.54.39.09a2.43,2.43,0,0,0,.83.05,3.28,3.28,0,0,0,1.18-.34,3.07,3.07,0,0,0,1-.9,3,3,0,0,0,.61-2.23,5.15,5.15,0,0,0-2.25-3.17,6.82,6.82,0,0,0-1.69-.94,3.4,3.4,0,0,0-2.81.09,6.34,6.34,0,0,0-1.19.94l1.5,1.17.54-.39.37-.14a2.21,2.21,0,0,1,1.15,0,3.92,3.92,0,0,1,1.19.66,4.37,4.37,0,0,1,.74.75,1.49,1.49,0,0,1,.22,2,1.65,1.65,0,0,1-1.41.68,4,4,0,0,1-2.58-1l-.45-.34,0-.13-.27-.06-1.09,1.46.14.24.09,0,.15.08.27.15.39.28a5.12,5.12,0,0,1,1,.9l.7,1a2.42,2.42,0,0,1-.25,2.51,2.59,2.59,0,0,1-.73.65,1.31,1.31,0,0,1-.87.09,4.1,4.1,0,0,1-.86-.27l-.8-.4-.59-.43a5.23,5.23,0,0,1-.68-.58,3,3,0,0,1-1-1.72,2,2,0,0,1,.06-.83,4.48,4.48,0,0,1,.6-1l-1.53-1.14-.18.15-.17.23A5.52,5.52,0,0,0,46.8,252a8.69,8.69,0,0,0-.19,1.25c0,1.39.9,2.7,2.57,3.93a11.22,11.22,0,0,0,1,.66,6.39,6.39,0,0,0,2.73.93A3.26,3.26,0,0,0,55.94,257.29Z"/><path d="M106.57,268.39q-1.92-.4-3.84-.87l0-.26-.19-.69-.15-.64-.29-1-.26-.73-.32-.65-.19-.34-.42-.58-.82-1-.44-.48-.52-.48-.55-.4-.59-.45-.61-.41a.74.74,0,0,0-.31-.19l-.37-.18h-.45a.58.58,0,0,0-.59.33l-.09.18-.06.22,0,.28c0,.27,0,.41,0,.43l.14.36.32.29,1.13.58.62.36.56.4.46.42.43.36a1.65,1.65,0,0,1,.45.52l.42.58.34.64.49,1,.55,1.19,0,0a125.59,125.59,0,0,1-40.1-17.78l-1.08,1.67c.72.48,1.46.94,2.19,1.42L60,255.76l-2-1.5-1.07,1.43,2.06,1.52-3.76,5.07,1.65,1.29,7.44-9.91Q68,256,72,258v.11l.23.3.29.49.13.22a2.93,2.93,0,0,1,.09,2.59,3.17,3.17,0,0,1-.83,1,2.08,2.08,0,0,1-1.08.33,4.15,4.15,0,0,1-2-.56l-.64-.39-.69-.62-.72-.71-.82,1.65,1.28,1-.23.48a5.65,5.65,0,0,0-.55,1.54,7.2,7.2,0,0,0-.09,1.47c.1,1.56,1.08,2.72,2.93,3.5l1.26.54,1,.3.8-1.79-.84,0-.47,0-.39-.17a4.68,4.68,0,0,1-1.59-1.14,2.59,2.59,0,0,1-.77-1.36,3.25,3.25,0,0,1,.36-2.07l.11-.23.08-.09a4.81,4.81,0,0,0,1.52.48c.33,0,.63,0,.91,0a3.62,3.62,0,0,0,3.25-2.21,3.3,3.3,0,0,0,.27-2.31l-.2-.81-.06-.22c1.62.79,3.27,1.56,4.92,2.29l-2.08,4-3.08-1.54-.83,1.65,3.09,1.55-2.7,5.39,1.84,1,5.61-11.27q6.06,2.55,12.43,4.52l-.65,2.75-.16-.08a.8.8,0,0,0-.29-.21l-.29-.18L92,269a4.22,4.22,0,0,0-1-.51l-.86-.26L88.92,268l-1.12-.08-1.09.19-1,.34a4.4,4.4,0,0,0-2.42,2.78,4.73,4.73,0,0,0,.94,4.85l.8.74,1.29.84,1-1.26-.93-.78-.51-.57a4.17,4.17,0,0,1-.73-1.6,3.37,3.37,0,0,1,.1-1.66A2.65,2.65,0,0,1,86.91,270a4,4,0,0,1,.67-.21,5.38,5.38,0,0,1,.68,0,4.11,4.11,0,0,1,1.43.21l.76.29.38.19.43.24.39.26.39.21.27.26.2.15-2.21,7.15,1.93.66,3.65-11.9q2.57.75,5.19,1.39l-2.28,11.85,2,.44,2.26-11.81c1.09.25,2.18.48,3.28.7Z"/><path d="M135.92,272.76l-.09-1.67-2.31,0a133.75,133.75,0,0,1-23.45-2.06l-.54,1.66c2.39.42,4.81.77,7.25,1.07l-.09,3.52-1.46,0-1,.14-.71.18a2.93,2.93,0,0,0-1.83,2.87,3.67,3.67,0,0,0,1,2.74,8.42,8.42,0,0,0,1.11.71,5,5,0,0,0,1.41.23c2.07.05,3.24-.67,3.5-2.16l.07-2.8,4.18.17-.17,6.69,2.13.11.35-11.6c1.73.1,3.49.17,5.25.21l0,11.6,2,0,0-11.63h.73Zm-19.31,6.77a1.91,1.91,0,0,1-.18.36,1.41,1.41,0,0,1-1.2.39,1.51,1.51,0,0,1-1.32-.62,1.94,1.94,0,0,1-.22-1.2,1.52,1.52,0,0,1,.2-.7.93.93,0,0,1,.54-.47l.28-.11.49-.1,1.44,0,0,1.68.08.25Zm6.38-4-4.17-.17.08-3.33c1.39.15,2.78.27,4.18.38Z"/><path d="M211.32,247.59c.89-.67,1.78-1.33,2.66-2l-1.06-1.41A127.19,127.19,0,0,1,139.4,271l.18,1.66c2.19-.1,4.36-.26,6.52-.46l.17.09.23.12a2.91,2.91,0,0,1,1.41,2.16,3.25,3.25,0,0,1-.17,1.31,2.2,2.2,0,0,1-.75.85,4.18,4.18,0,0,1-2,.55h-.75l-.92-.18-1-.22.15,1.84,1.62.18,0,.53a6.13,6.13,0,0,0,.33,1.61,7.58,7.58,0,0,0,.69,1.29q1.34,1.92,4.31,1.48l1.36-.19,1-.29-.23-1.94-.72.42-.45.21-.4.06a4.71,4.71,0,0,1-2-.16,2.53,2.53,0,0,1-1.35-.76,3.16,3.16,0,0,1-.78-2l0-.25,0-.12a4.94,4.94,0,0,0,1.56-.37l.78-.46a3.63,3.63,0,0,0,1.63-3.57,3.29,3.29,0,0,0-1-2.12l-.37-.37c1.67-.19,3.32-.4,5-.66l.34,4.18-3.44.28.15,1.85,3.44-.28.49,6,2.09-.08-1-12.28c3.9-.65,7.75-1.47,11.5-2.44l.25,2.41-2.64.42-1.09.41a2,2,0,0,0-.76.44,3.94,3.94,0,0,0-1.33,3.89,5.39,5.39,0,0,0,.67,1.79,4.17,4.17,0,0,0,1.44,1.25,5.67,5.67,0,0,0,3.83.49l.91-.18.37-.17.15-.11,1.25,2.27,2-1-1.73-2,1.43-.86-.65-1.4-2.24-.91-1.42.82.6,1.55-.1.08-.85.22a5.68,5.68,0,0,1-1.27.07,2.59,2.59,0,0,1-1-.32,2.37,2.37,0,0,1-1.29-1.79,2.92,2.92,0,0,1,.11-1.4,2.15,2.15,0,0,1,.89-1l.5-.25c.36-.14.63-.23.81-.28l3.64-.59L169,268c2.44-.66,4.85-1.4,7.23-2.2a11.81,11.81,0,0,1,1.3.62c.49.41.84.72,1.06.93a7.5,7.5,0,0,1,1.48,2.41,5.05,5.05,0,0,1,.49,2.91,1.66,1.66,0,0,1-1.06,1.14,2,2,0,0,1-1.57,0l-.64-.4a1.58,1.58,0,0,1-.37-.65c-.18-.61-.07-1,.32-1.3a.84.84,0,0,1,.34-.19,1.73,1.73,0,0,1,.56-.28l-.62-1.69-.54.3-.75.54-.54.46-.4.46a2.53,2.53,0,0,0-.21,2.49,4.22,4.22,0,0,0,.8,1.27,4.28,4.28,0,0,0,1.24.88,4.2,4.2,0,0,0,1.48.27,3.93,3.93,0,0,0,1.41-.3,3.79,3.79,0,0,0,2.6-2.92,7.27,7.27,0,0,0-.64-3.72,5.9,5.9,0,0,0-.6-1.15l-.84-1.17q-.28-.35-.39-.45l-.62-.56-1.09-.65c1.4-.51,2.79-1,4.18-1.57l4.65,11.43,2-.73-4.5-11.56q3.84-1.61,7.53-3.43l1.8,3-1.24.75-.81.68-.49.53a2.94,2.94,0,0,0,0,3.41,3.78,3.78,0,0,0,2.35,1.75,7.06,7.06,0,0,0,1.32,0,4.78,4.78,0,0,0,1.31-.55c1.77-1.07,2.37-2.31,1.8-3.7l-1.45-2.41,3.62-2.18,3.46,5.74,1.86-1.05-6-10c1.67-1,3.3-2,4.92-3l.33.1a2,2,0,0,1,.72.28,2.14,2.14,0,0,1,.57.33,1.2,1.2,0,0,1,.34.38,1.08,1.08,0,0,1-.11,1.46,1.4,1.4,0,0,1-.47.47l-1.22.74-.81.34-.94.23.2.51.3.5a8.05,8.05,0,0,0,1.18,1.55c.64.47,1.12.81,1.46,1q2.38,1.13,5.31-.62a7.16,7.16,0,0,0,1.19-.9,11.69,11.69,0,0,0,1-1.08l.45-.72.21-.42,1.8,3,1.79-1Zm-15.84,19.6a1.5,1.5,0,0,1-1.45.18,1.94,1.94,0,0,1-.82-.89,1.52,1.52,0,0,1-.22-.71.94.94,0,0,1,.21-.68l.17-.24.37-.35,1.23-.74.87,1.44.2.17.2.44a1.49,1.49,0,0,1,0,.4C196.26,266.55,196,266.88,195.48,267.19Zm4-8.27-3.63,2.18-1.72-2.86c1.28-.66,2.55-1.34,3.8-2ZM213,255.08l-.28.62c-.15.3-.26.51-.32.61a7.21,7.21,0,0,1-3.43,2.33,3.65,3.65,0,0,1-1.33.08l-.65-.17-.59-.27-.49-.43a2.47,2.47,0,0,1-.32-.43l.94-.46,1.14-.81a5.16,5.16,0,0,0,.81-1,2.59,2.59,0,0,0,0-2.77,3.42,3.42,0,0,0-1.31-1.16l-.63-.28h-.06c1.12-.74,2.22-1.5,3.31-2.28l0,.05,3.39,5.69Z"/><rect class="cls-4" width="265.91" height="300"/></svg>